<svg xmlns="http://www.w3.org/2000/svg" xmlns:xlink="http://www.w3.org/1999/xlink" width="995" zoomAndPan="magnify" viewBox="0 0 746.25 317.249999" height="423" preserveAspectRatio="xMidYMid meet" version="1.0"><defs><g/></defs><path stroke-linecap="butt" transform="matrix(0.748052, 0.00347557, -0.00347636, 0.748223, 228.436848, 154.112497)" fill="none" stroke-linejoin="miter" d="M -0.000863092 2.997736 L 548.130859 2.999313 " stroke="#000000" stroke-width="6" stroke-opacity="1" stroke-miterlimit="4"/><path stroke-linecap="butt" transform="matrix(0.000000000000000881, 0.752026, -0.748231, 0.000000000000000877, 231.189082, 122.528764)" fill="none" stroke-linejoin="miter" d="M -0.00188855 2.001621 L 95.526579 2.001621 " stroke="#000000" stroke-width="4" stroke-opacity="1" stroke-miterlimit="4"/><path stroke-linecap="butt" transform="matrix(0.000000000000000046, 0.752026, -0.748231, 0.000000000000000046, 333.402478, 122.528764)" fill="none" stroke-linejoin="miter" d="M -0.00188855 1.999687 L 95.526579 1.999687 " stroke="#000000" stroke-width="4" stroke-opacity="1" stroke-miterlimit="4"/><path stroke-linecap="butt" transform="matrix(0.000000000000000046, 0.752026, -0.748231, 0.000000000000000046, 435.615905, 122.528764)" fill="none" stroke-linejoin="miter" d="M -0.00188855 1.997794 L 95.526579 1.997794 " stroke="#000000" stroke-width="4" stroke-opacity="1" stroke-miterlimit="4"/><path stroke-linecap="butt" transform="matrix(0.000000000000000046, 0.752026, -0.748231, 0.000000000000000046, 537.829301, 122.528764)" fill="none" stroke-linejoin="miter" d="M -0.00188855 2.00108 L 95.526579 2.00108 " stroke="#000000" stroke-width="4" stroke-opacity="1" stroke-miterlimit="4"/><path stroke-linecap="butt" transform="matrix(0.000000000000000046, 0.752026, -0.748231, 0.000000000000000046, 640.042697, 122.528764)" fill="none" stroke-linejoin="miter" d="M -0.00188855 1.999145 L 95.526579 1.999145 " stroke="#000000" stroke-width="4" stroke-opacity="1" stroke-miterlimit="4"/><g fill="#000000" fill-opacity="1"><g transform="translate(134.840284, 233.104424)"><g><path d="M 9.640625 -3.40625 C 10.453125 -3.40625 11.429688 -3.582031 12.578125 -3.9375 L 12.578125 -0.46875 C 11.410156 0.0507812 9.984375 0.3125 8.296875 0.3125 C 6.429688 0.3125 5.070312 -0.15625 4.21875 -1.09375 C 3.375 -2.039062 2.953125 -3.457031 2.953125 -5.34375 L 2.953125 -13.578125 L 0.71875 -13.578125 L 0.71875 -15.546875 L 3.28125 -17.109375 L 4.625 -20.71875 L 7.609375 -20.71875 L 7.609375 -17.078125 L 12.390625 -17.078125 L 12.390625 -13.578125 L 7.609375 -13.578125 L 7.609375 -5.34375 C 7.609375 -4.6875 7.789062 -4.195312 8.15625 -3.875 C 8.53125 -3.5625 9.023438 -3.40625 9.640625 -3.40625 Z M 9.640625 -3.40625 "/></g></g></g><g fill="#000000" fill-opacity="1"><g transform="translate(148.416978, 233.104424)"><g/></g></g><g fill="#000000" fill-opacity="1"><g transform="translate(156.54296, 233.104424)"><g/></g></g><g fill="#000000" fill-opacity="1"><g transform="translate(164.653434, 233.104424)"><g><path d="M 1.34375 -12.296875 L 1.34375 -15.640625 L 16.515625 -15.640625 L 16.515625 -12.296875 Z M 1.34375 -6.390625 L 1.34375 -9.734375 L 16.515625 -9.734375 L 16.515625 -6.390625 Z M 1.34375 -6.390625 "/></g></g></g><g fill="#000000" fill-opacity="1"><g transform="translate(182.497657, 233.104424)"><g/></g></g><g fill="#000000" fill-opacity="1"><g transform="translate(190.623638, 233.104424)"><g/></g></g><g fill="#000000" fill-opacity="1"><g transform="translate(198.74962, 233.104424)"><g/></g></g><g fill="#000000" fill-opacity="1"><g transform="translate(206.875601, 233.104424)"><g/></g></g><g fill="#000000" fill-opacity="1"><g transform="translate(223.108646, 233.104424)"><g><path d="M 16.734375 -11.171875 C 16.734375 -7.265625 16.09375 -4.375 14.8125 -2.5 C 13.539062 -0.625 11.578125 0.3125 8.921875 0.3125 C 6.347656 0.3125 4.40625 -0.65625 3.09375 -2.59375 C 1.78125 -4.53125 1.125 -7.390625 1.125 -11.171875 C 1.125 -15.109375 1.757812 -18.007812 3.03125 -19.875 C 4.3125 -21.75 6.273438 -22.6875 8.921875 -22.6875 C 11.492188 -22.6875 13.4375 -21.707031 14.75 -19.75 C 16.070312 -17.789062 16.734375 -14.929688 16.734375 -11.171875 Z M 5.8125 -11.171875 C 5.8125 -8.429688 6.046875 -6.46875 6.515625 -5.28125 C 6.992188 -4.09375 7.796875 -3.5 8.921875 -3.5 C 10.015625 -3.5 10.804688 -4.097656 11.296875 -5.296875 C 11.785156 -6.503906 12.03125 -8.460938 12.03125 -11.171875 C 12.03125 -13.910156 11.78125 -15.875 11.28125 -17.0625 C 10.789062 -18.257812 10.003906 -18.859375 8.921875 -18.859375 C 7.804688 -18.859375 7.007812 -18.257812 6.53125 -17.0625 C 6.050781 -15.875 5.8125 -13.910156 5.8125 -11.171875 Z M 5.8125 -11.171875 "/></g></g></g><g fill="#000000" fill-opacity="1"><g transform="translate(240.952869, 233.104424)"><g/></g></g><g fill="#000000" fill-opacity="1"><g transform="translate(249.07885, 233.104424)"><g/></g></g><g fill="#000000" fill-opacity="1"><g transform="translate(257.204832, 233.104424)"><g/></g></g><g fill="#000000" fill-opacity="1"><g transform="translate(265.330813, 233.104424)"><g/></g></g><g fill="#000000" fill-opacity="1"><g transform="translate(273.456795, 233.104424)"><g/></g></g><g fill="#000000" fill-opacity="1"><g transform="translate(281.582776, 233.104424)"><g/></g></g><g fill="#000000" fill-opacity="1"><g transform="translate(289.708758, 233.104424)"><g/></g></g><g fill="#000000" fill-opacity="1"><g transform="translate(297.834739, 233.104424)"><g/></g></g><g fill="#000000" fill-opacity="1"><g transform="translate(305.960721, 233.104424)"><g/></g></g><g fill="#000000" fill-opacity="1"><g transform="translate(314.086702, 233.104424)"><g/></g></g><g fill="#000000" fill-opacity="1"><g transform="translate(322.194696, 233.104424)"><g><path d="M 12.921875 0 L 8.203125 0 L 8.203125 -12.921875 L 8.25 -15.046875 L 8.328125 -17.359375 C 7.535156 -16.578125 6.988281 -16.066406 6.6875 -15.828125 L 4.125 -13.765625 L 1.84375 -16.609375 L 9.046875 -22.328125 L 12.921875 -22.328125 Z M 12.921875 0 "/></g></g></g><g fill="#000000" fill-opacity="1"><g transform="translate(340.038918, 233.104424)"><g/></g></g><g fill="#000000" fill-opacity="1"><g transform="translate(348.1649, 233.104424)"><g/></g></g><g fill="#000000" fill-opacity="1"><g transform="translate(356.290882, 233.104424)"><g/></g></g><g fill="#000000" fill-opacity="1"><g transform="translate(364.416863, 233.104424)"><g/></g></g><g fill="#000000" fill-opacity="1"><g transform="translate(372.542845, 233.104424)"><g/></g></g><g fill="#000000" fill-opacity="1"><g transform="translate(380.668826, 233.104424)"><g/></g></g><g fill="#000000" fill-opacity="1"><g transform="translate(388.794808, 233.104424)"><g/></g></g><g fill="#000000" fill-opacity="1"><g transform="translate(396.920789, 233.104424)"><g/></g></g><g fill="#000000" fill-opacity="1"><g transform="translate(405.046771, 233.104424)"><g/></g></g><g fill="#000000" fill-opacity="1"><g transform="translate(413.172752, 233.104424)"><g/></g></g><g fill="#000000" fill-opacity="1"><g transform="translate(421.280746, 233.104424)"><g><path d="M 16.859375 0 L 1.25 0 L 1.25 -3.28125 L 6.859375 -8.953125 C 8.515625 -10.648438 9.597656 -11.828125 10.109375 -12.484375 C 10.617188 -13.140625 10.984375 -13.75 11.203125 -14.3125 C 11.429688 -14.875 11.546875 -15.453125 11.546875 -16.046875 C 11.546875 -16.941406 11.296875 -17.609375 10.796875 -18.046875 C 10.304688 -18.484375 9.648438 -18.703125 8.828125 -18.703125 C 7.960938 -18.703125 7.125 -18.503906 6.3125 -18.109375 C 5.5 -17.710938 4.644531 -17.148438 3.75 -16.421875 L 1.1875 -19.453125 C 2.289062 -20.390625 3.203125 -21.050781 3.921875 -21.4375 C 4.648438 -21.832031 5.441406 -22.132812 6.296875 -22.34375 C 7.148438 -22.550781 8.109375 -22.65625 9.171875 -22.65625 C 10.554688 -22.65625 11.785156 -22.398438 12.859375 -21.890625 C 13.929688 -21.378906 14.757812 -20.664062 15.34375 -19.75 C 15.9375 -18.832031 16.234375 -17.785156 16.234375 -16.609375 C 16.234375 -15.578125 16.050781 -14.609375 15.6875 -13.703125 C 15.332031 -12.804688 14.773438 -11.882812 14.015625 -10.9375 C 13.253906 -9.988281 11.914062 -8.640625 10 -6.890625 L 7.140625 -4.1875 L 7.140625 -3.96875 L 16.859375 -3.96875 Z M 16.859375 0 "/></g></g></g><g fill="#000000" fill-opacity="1"><g transform="translate(439.124975, 233.104424)"><g/></g></g><g fill="#000000" fill-opacity="1"><g transform="translate(447.250956, 233.104424)"><g/></g></g><g fill="#000000" fill-opacity="1"><g transform="translate(455.376938, 233.104424)"><g/></g></g><g fill="#000000" fill-opacity="1"><g transform="translate(463.502919, 233.104424)"><g/></g></g><g fill="#000000" fill-opacity="1"><g transform="translate(471.628901, 233.104424)"><g/></g></g><g fill="#000000" fill-opacity="1"><g transform="translate(479.754882, 233.104424)"><g/></g></g><g fill="#000000" fill-opacity="1"><g transform="translate(487.880864, 233.104424)"><g/></g></g><g fill="#000000" fill-opacity="1"><g transform="translate(496.006845, 233.104424)"><g/></g></g><g fill="#000000" fill-opacity="1"><g transform="translate(504.132827, 233.104424)"><g/></g></g><g fill="#000000" fill-opacity="1"><g transform="translate(512.258809, 233.104424)"><g/></g></g><g fill="#000000" fill-opacity="1"><g transform="translate(520.38479, 233.104424)"><g/></g></g><g fill="#000000" fill-opacity="1"><g transform="translate(528.504873, 233.104424)"><g><path d="M 15.984375 -17.34375 C 15.984375 -15.945312 15.5625 -14.757812 14.71875 -13.78125 C 13.875 -12.800781 12.691406 -12.128906 11.171875 -11.765625 L 11.171875 -11.671875 C 12.972656 -11.441406 14.335938 -10.890625 15.265625 -10.015625 C 16.191406 -9.148438 16.65625 -7.976562 16.65625 -6.5 C 16.65625 -4.351562 15.875 -2.679688 14.3125 -1.484375 C 12.75 -0.285156 10.523438 0.3125 7.640625 0.3125 C 5.210938 0.3125 3.0625 -0.09375 1.1875 -0.90625 L 1.1875 -4.921875 C 2.050781 -4.484375 3.003906 -4.125 4.046875 -3.84375 C 5.085938 -3.570312 6.117188 -3.4375 7.140625 -3.4375 C 8.691406 -3.4375 9.835938 -3.703125 10.578125 -4.234375 C 11.328125 -4.765625 11.703125 -5.613281 11.703125 -6.78125 C 11.703125 -7.832031 11.273438 -8.578125 10.421875 -9.015625 C 9.566406 -9.453125 8.203125 -9.671875 6.328125 -9.671875 L 4.625 -9.671875 L 4.625 -13.28125 L 6.359375 -13.28125 C 8.085938 -13.28125 9.347656 -13.503906 10.140625 -13.953125 C 10.941406 -14.410156 11.34375 -15.191406 11.34375 -16.296875 C 11.34375 -17.984375 10.285156 -18.828125 8.171875 -18.828125 C 7.441406 -18.828125 6.695312 -18.703125 5.9375 -18.453125 C 5.175781 -18.210938 4.332031 -17.796875 3.40625 -17.203125 L 1.21875 -20.453125 C 3.257812 -21.921875 5.6875 -22.65625 8.5 -22.65625 C 10.8125 -22.65625 12.632812 -22.1875 13.96875 -21.25 C 15.3125 -20.3125 15.984375 -19.007812 15.984375 -17.34375 Z M 15.984375 -17.34375 "/></g></g></g><g fill="#000000" fill-opacity="1"><g transform="translate(546.349102, 233.104424)"><g/></g></g><g fill="#000000" fill-opacity="1"><g transform="translate(554.475083, 233.104424)"><g/></g></g><g fill="#000000" fill-opacity="1"><g transform="translate(562.601065, 233.104424)"><g/></g></g><g fill="#000000" fill-opacity="1"><g transform="translate(570.727046, 233.104424)"><g/></g></g><g fill="#000000" fill-opacity="1"><g transform="translate(578.853028, 233.104424)"><g/></g></g><g fill="#000000" fill-opacity="1"><g transform="translate(586.979009, 233.104424)"><g/></g></g><g fill="#000000" fill-opacity="1"><g transform="translate(595.104991, 233.104424)"><g/></g></g><g fill="#000000" fill-opacity="1"><g transform="translate(603.230972, 233.104424)"><g/></g></g><g fill="#000000" fill-opacity="1"><g transform="translate(611.356954, 233.104424)"><g/></g></g><g fill="#000000" fill-opacity="1"><g transform="translate(619.482935, 233.104424)"><g/></g></g><g fill="#000000" fill-opacity="1"><g transform="translate(627.590923, 233.104424)"><g><path d="M 17.359375 -4.625 L 14.671875 -4.625 L 14.671875 0 L 10.0625 0 L 10.0625 -4.625 L 0.53125 -4.625 L 0.53125 -7.90625 L 10.328125 -22.328125 L 14.671875 -22.328125 L 14.671875 -8.296875 L 17.359375 -8.296875 Z M 10.0625 -8.296875 L 10.0625 -12.078125 C 10.0625 -12.710938 10.085938 -13.628906 10.140625 -14.828125 C 10.191406 -16.035156 10.234375 -16.734375 10.265625 -16.921875 L 10.140625 -16.921875 C 9.765625 -16.085938 9.3125 -15.273438 8.78125 -14.484375 L 4.6875 -8.296875 Z M 10.0625 -8.296875 "/></g></g></g><g fill="#000000" fill-opacity="1"><g transform="translate(645.435152, 233.104424)"><g/></g></g><g fill="#000000" fill-opacity="1"><g transform="translate(653.561133, 233.104424)"><g/></g></g><g fill="#000000" fill-opacity="1"><g transform="translate(661.687115, 233.104424)"><g/></g></g><g fill="#000000" fill-opacity="1"><g transform="translate(75.574587, 104.058783)"><g/></g></g><g fill="#000000" fill-opacity="1"><g transform="translate(83.692815, 104.058783)"><g><path d="M 12.296875 -18.703125 C 10.515625 -18.703125 9.132812 -18.03125 8.15625 -16.6875 C 7.175781 -15.351562 6.6875 -13.492188 6.6875 -11.109375 C 6.6875 -6.128906 8.554688 -3.640625 12.296875 -3.640625 C 13.859375 -3.640625 15.757812 -4.03125 18 -4.8125 L 18 -0.84375 C 16.164062 -0.0703125 14.117188 0.3125 11.859375 0.3125 C 8.609375 0.3125 6.117188 -0.671875 4.390625 -2.640625 C 2.671875 -4.617188 1.8125 -7.453125 1.8125 -11.140625 C 1.8125 -13.460938 2.234375 -15.492188 3.078125 -17.234375 C 3.929688 -18.984375 5.148438 -20.320312 6.734375 -21.25 C 8.316406 -22.1875 10.171875 -22.65625 12.296875 -22.65625 C 14.460938 -22.65625 16.640625 -22.128906 18.828125 -21.078125 L 17.3125 -17.234375 C 16.46875 -17.628906 15.625 -17.972656 14.78125 -18.265625 C 13.9375 -18.554688 13.109375 -18.703125 12.296875 -18.703125 Z M 12.296875 -18.703125 "/></g></g></g><g fill="#000000" fill-opacity="1"><g transform="translate(103.625908, 104.058783)"><g><path d="M 7.46875 0 L 2.8125 0 L 2.8125 -22.328125 L 15.609375 -22.328125 L 15.609375 -18.453125 L 7.46875 -18.453125 L 7.46875 -12.6875 L 15.046875 -12.6875 L 15.046875 -8.828125 L 7.46875 -8.828125 Z M 7.46875 0 "/></g></g></g><g fill="#000000" fill-opacity="1"><g transform="translate(120.794336, 104.058783)"><g><path d="M 1.25 -8.5625 C 1.25 -11.257812 1.644531 -13.785156 2.4375 -16.140625 C 3.226562 -18.492188 4.363281 -20.554688 5.84375 -22.328125 L 9.671875 -22.328125 C 8.234375 -20.359375 7.144531 -18.195312 6.40625 -15.84375 C 5.675781 -13.5 5.3125 -11.082031 5.3125 -8.59375 C 5.3125 -6.101562 5.6875 -3.691406 6.4375 -1.359375 C 7.1875 0.960938 8.253906 3.066406 9.640625 4.953125 L 5.84375 4.953125 C 4.351562 3.222656 3.210938 1.203125 2.421875 -1.109375 C 1.640625 -3.421875 1.25 -5.90625 1.25 -8.5625 Z M 1.25 -8.5625 "/></g></g></g><g fill="#000000" fill-opacity="1"><g transform="translate(131.39477, 104.058783)"><g><path d="M 9.640625 -3.40625 C 10.453125 -3.40625 11.429688 -3.582031 12.578125 -3.9375 L 12.578125 -0.46875 C 11.410156 0.0507812 9.984375 0.3125 8.296875 0.3125 C 6.429688 0.3125 5.070312 -0.15625 4.21875 -1.09375 C 3.375 -2.039062 2.953125 -3.457031 2.953125 -5.34375 L 2.953125 -13.578125 L 0.71875 -13.578125 L 0.71875 -15.546875 L 3.28125 -17.109375 L 4.625 -20.71875 L 7.609375 -20.71875 L 7.609375 -17.078125 L 12.390625 -17.078125 L 12.390625 -13.578125 L 7.609375 -13.578125 L 7.609375 -5.34375 C 7.609375 -4.6875 7.789062 -4.195312 8.15625 -3.875 C 8.53125 -3.5625 9.023438 -3.40625 9.640625 -3.40625 Z M 9.640625 -3.40625 "/></g></g></g><g fill="#000000" fill-opacity="1"><g transform="translate(144.973713, 104.058783)"><g><path d="M 9.34375 -8.5625 C 9.34375 -5.882812 8.945312 -3.390625 8.15625 -1.078125 C 7.375 1.222656 6.238281 3.234375 4.75 4.953125 L 0.96875 4.953125 C 2.34375 3.078125 3.40625 0.976562 4.15625 -1.34375 C 4.90625 -3.675781 5.28125 -6.09375 5.28125 -8.59375 C 5.28125 -11.082031 4.910156 -13.5 4.171875 -15.84375 C 3.441406 -18.195312 2.363281 -20.359375 0.9375 -22.328125 L 4.75 -22.328125 C 6.25 -20.546875 7.390625 -18.472656 8.171875 -16.109375 C 8.953125 -13.753906 9.34375 -11.238281 9.34375 -8.5625 Z M 9.34375 -8.5625 "/></g></g></g><g fill="#000000" fill-opacity="1"><g transform="translate(155.574148, 104.058783)"><g/></g></g><g fill="#000000" fill-opacity="1"><g transform="translate(163.700129, 104.058783)"><g><path d="M 1.34375 -12.296875 L 1.34375 -15.640625 L 16.515625 -15.640625 L 16.515625 -12.296875 Z M 1.34375 -6.390625 L 1.34375 -9.734375 L 16.515625 -9.734375 L 16.515625 -6.390625 Z M 1.34375 -6.390625 "/></g></g></g><g fill="#000000" fill-opacity="1"><g transform="translate(181.548228, 104.058783)"><g/></g></g><g fill="#000000" fill-opacity="1"><g transform="translate(189.67421, 104.058783)"><g/></g></g><g fill="#000000" fill-opacity="1"><g transform="translate(197.784685, 104.058783)"><g><path d="M 12.921875 0 L 8.203125 0 L 8.203125 -12.921875 L 8.25 -15.046875 L 8.328125 -17.359375 C 7.535156 -16.578125 6.988281 -16.066406 6.6875 -15.828125 L 4.125 -13.765625 L 1.84375 -16.609375 L 9.046875 -22.328125 L 12.921875 -22.328125 Z M 12.921875 0 "/></g></g></g><g fill="#000000" fill-opacity="1"><g transform="translate(215.64046, 104.058783)"><g><path d="M 16.734375 -11.171875 C 16.734375 -7.265625 16.09375 -4.375 14.8125 -2.5 C 13.539062 -0.625 11.578125 0.3125 8.921875 0.3125 C 6.347656 0.3125 4.40625 -0.65625 3.09375 -2.59375 C 1.78125 -4.53125 1.125 -7.390625 1.125 -11.171875 C 1.125 -15.109375 1.757812 -18.007812 3.03125 -19.875 C 4.3125 -21.75 6.273438 -22.6875 8.921875 -22.6875 C 11.492188 -22.6875 13.4375 -21.707031 14.75 -19.75 C 16.070312 -17.789062 16.734375 -14.929688 16.734375 -11.171875 Z M 5.8125 -11.171875 C 5.8125 -8.429688 6.046875 -6.46875 6.515625 -5.28125 C 6.992188 -4.09375 7.796875 -3.5 8.921875 -3.5 C 10.015625 -3.5 10.804688 -4.097656 11.296875 -5.296875 C 11.785156 -6.503906 12.03125 -8.460938 12.03125 -11.171875 C 12.03125 -13.910156 11.78125 -15.875 11.28125 -17.0625 C 10.789062 -18.257812 10.003906 -18.859375 8.921875 -18.859375 C 7.804688 -18.859375 7.007812 -18.257812 6.53125 -17.0625 C 6.050781 -15.875 5.8125 -13.910156 5.8125 -11.171875 Z M 5.8125 -11.171875 "/></g></g></g><g fill="#000000" fill-opacity="1"><g transform="translate(233.496235, 104.058783)"><g><path d="M 16.734375 -11.171875 C 16.734375 -7.265625 16.09375 -4.375 14.8125 -2.5 C 13.539062 -0.625 11.578125 0.3125 8.921875 0.3125 C 6.347656 0.3125 4.40625 -0.65625 3.09375 -2.59375 C 1.78125 -4.53125 1.125 -7.390625 1.125 -11.171875 C 1.125 -15.109375 1.757812 -18.007812 3.03125 -19.875 C 4.3125 -21.75 6.273438 -22.6875 8.921875 -22.6875 C 11.492188 -22.6875 13.4375 -21.707031 14.75 -19.75 C 16.070312 -17.789062 16.734375 -14.929688 16.734375 -11.171875 Z M 5.8125 -11.171875 C 5.8125 -8.429688 6.046875 -6.46875 6.515625 -5.28125 C 6.992188 -4.09375 7.796875 -3.5 8.921875 -3.5 C 10.015625 -3.5 10.804688 -4.097656 11.296875 -5.296875 C 11.785156 -6.503906 12.03125 -8.460938 12.03125 -11.171875 C 12.03125 -13.910156 11.78125 -15.875 11.28125 -17.0625 C 10.789062 -18.257812 10.003906 -18.859375 8.921875 -18.859375 C 7.804688 -18.859375 7.007812 -18.257812 6.53125 -17.0625 C 6.050781 -15.875 5.8125 -13.910156 5.8125 -11.171875 Z M 5.8125 -11.171875 "/></g></g></g><g fill="#000000" fill-opacity="1"><g transform="translate(251.337201, 104.058783)"><g/></g></g><g fill="#000000" fill-opacity="1"><g transform="translate(259.463183, 104.058783)"><g/></g></g><g fill="#000000" fill-opacity="1"><g transform="translate(267.589164, 104.058783)"><g/></g></g><g fill="#000000" fill-opacity="1"><g transform="translate(275.715146, 104.058783)"><g/></g></g><g fill="#000000" fill-opacity="1"><g transform="translate(283.841127, 104.058783)"><g/></g></g><g fill="#000000" fill-opacity="1"><g transform="translate(291.967109, 104.058783)"><g/></g></g><g fill="#000000" fill-opacity="1"><g transform="translate(300.086267, 104.058783)"><g><path d="M 16.859375 0 L 1.25 0 L 1.25 -3.28125 L 6.859375 -8.953125 C 8.515625 -10.648438 9.597656 -11.828125 10.109375 -12.484375 C 10.617188 -13.140625 10.984375 -13.75 11.203125 -14.3125 C 11.429688 -14.875 11.546875 -15.453125 11.546875 -16.046875 C 11.546875 -16.941406 11.296875 -17.609375 10.796875 -18.046875 C 10.304688 -18.484375 9.648438 -18.703125 8.828125 -18.703125 C 7.960938 -18.703125 7.125 -18.503906 6.3125 -18.109375 C 5.5 -17.710938 4.644531 -17.148438 3.75 -16.421875 L 1.1875 -19.453125 C 2.289062 -20.390625 3.203125 -21.050781 3.921875 -21.4375 C 4.648438 -21.832031 5.441406 -22.132812 6.296875 -22.34375 C 7.148438 -22.550781 8.109375 -22.65625 9.171875 -22.65625 C 10.554688 -22.65625 11.785156 -22.398438 12.859375 -21.890625 C 13.929688 -21.378906 14.757812 -20.664062 15.34375 -19.75 C 15.9375 -18.832031 16.234375 -17.785156 16.234375 -16.609375 C 16.234375 -15.578125 16.050781 -14.609375 15.6875 -13.703125 C 15.332031 -12.804688 14.773438 -11.882812 14.015625 -10.9375 C 13.253906 -9.988281 11.914062 -8.640625 10 -6.890625 L 7.140625 -4.1875 L 7.140625 -3.96875 L 16.859375 -3.96875 Z M 16.859375 0 "/></g></g></g><g fill="#000000" fill-opacity="1"><g transform="translate(317.942043, 104.058783)"><g><path d="M 16.734375 -11.171875 C 16.734375 -7.265625 16.09375 -4.375 14.8125 -2.5 C 13.539062 -0.625 11.578125 0.3125 8.921875 0.3125 C 6.347656 0.3125 4.40625 -0.65625 3.09375 -2.59375 C 1.78125 -4.53125 1.125 -7.390625 1.125 -11.171875 C 1.125 -15.109375 1.757812 -18.007812 3.03125 -19.875 C 4.3125 -21.75 6.273438 -22.6875 8.921875 -22.6875 C 11.492188 -22.6875 13.4375 -21.707031 14.75 -19.75 C 16.070312 -17.789062 16.734375 -14.929688 16.734375 -11.171875 Z M 5.8125 -11.171875 C 5.8125 -8.429688 6.046875 -6.46875 6.515625 -5.28125 C 6.992188 -4.09375 7.796875 -3.5 8.921875 -3.5 C 10.015625 -3.5 10.804688 -4.097656 11.296875 -5.296875 C 11.785156 -6.503906 12.03125 -8.460938 12.03125 -11.171875 C 12.03125 -13.910156 11.78125 -15.875 11.28125 -17.0625 C 10.789062 -18.257812 10.003906 -18.859375 8.921875 -18.859375 C 7.804688 -18.859375 7.007812 -18.257812 6.53125 -17.0625 C 6.050781 -15.875 5.8125 -13.910156 5.8125 -11.171875 Z M 5.8125 -11.171875 "/></g></g></g><g fill="#000000" fill-opacity="1"><g transform="translate(335.797818, 104.058783)"><g><path d="M 16.734375 -11.171875 C 16.734375 -7.265625 16.09375 -4.375 14.8125 -2.5 C 13.539062 -0.625 11.578125 0.3125 8.921875 0.3125 C 6.347656 0.3125 4.40625 -0.65625 3.09375 -2.59375 C 1.78125 -4.53125 1.125 -7.390625 1.125 -11.171875 C 1.125 -15.109375 1.757812 -18.007812 3.03125 -19.875 C 4.3125 -21.75 6.273438 -22.6875 8.921875 -22.6875 C 11.492188 -22.6875 13.4375 -21.707031 14.75 -19.75 C 16.070312 -17.789062 16.734375 -14.929688 16.734375 -11.171875 Z M 5.8125 -11.171875 C 5.8125 -8.429688 6.046875 -6.46875 6.515625 -5.28125 C 6.992188 -4.09375 7.796875 -3.5 8.921875 -3.5 C 10.015625 -3.5 10.804688 -4.097656 11.296875 -5.296875 C 11.785156 -6.503906 12.03125 -8.460938 12.03125 -11.171875 C 12.03125 -13.910156 11.78125 -15.875 11.28125 -17.0625 C 10.789062 -18.257812 10.003906 -18.859375 8.921875 -18.859375 C 7.804688 -18.859375 7.007812 -18.257812 6.53125 -17.0625 C 6.050781 -15.875 5.8125 -13.910156 5.8125 -11.171875 Z M 5.8125 -11.171875 "/></g></g></g><g fill="#000000" fill-opacity="1"><g transform="translate(353.638784, 104.058783)"><g/></g></g><g fill="#000000" fill-opacity="1"><g transform="translate(361.764765, 104.058783)"><g/></g></g><g fill="#000000" fill-opacity="1"><g transform="translate(369.890747, 104.058783)"><g/></g></g><g fill="#000000" fill-opacity="1"><g transform="translate(378.016728, 104.058783)"><g/></g></g><g fill="#000000" fill-opacity="1"><g transform="translate(386.14271, 104.058783)"><g/></g></g><g fill="#000000" fill-opacity="1"><g transform="translate(394.268692, 104.058783)"><g/></g></g><g fill="#000000" fill-opacity="1"><g transform="translate(402.38785, 104.058783)"><g><path d="M 0.9375 -6.46875 L 0.9375 -10.296875 L 9.140625 -10.296875 L 9.140625 -6.46875 Z M 0.9375 -6.46875 "/></g></g></g><g fill="#000000" fill-opacity="1"><g transform="translate(412.453681, 104.058783)"><g><path d="M 9.375 -14.265625 C 11.53125 -14.265625 13.25 -13.65625 14.53125 -12.4375 C 15.8125 -11.226562 16.453125 -9.570312 16.453125 -7.46875 C 16.453125 -4.976562 15.679688 -3.054688 14.140625 -1.703125 C 12.609375 -0.359375 10.410156 0.3125 7.546875 0.3125 C 5.054688 0.3125 3.050781 -0.09375 1.53125 -0.90625 L 1.53125 -4.984375 C 2.332031 -4.554688 3.265625 -4.207031 4.328125 -3.9375 C 5.398438 -3.664062 6.414062 -3.53125 7.375 -3.53125 C 10.257812 -3.53125 11.703125 -4.710938 11.703125 -7.078125 C 11.703125 -9.328125 10.207031 -10.453125 7.21875 -10.453125 C 6.6875 -10.453125 6.09375 -10.394531 5.4375 -10.28125 C 4.78125 -10.175781 4.25 -10.0625 3.84375 -9.9375 L 1.96875 -10.953125 L 2.8125 -22.328125 L 14.921875 -22.328125 L 14.921875 -18.328125 L 6.953125 -18.328125 L 6.53125 -13.9375 L 7.078125 -14.046875 C 7.691406 -14.191406 8.457031 -14.265625 9.375 -14.265625 Z M 9.375 -14.265625 "/></g></g></g><g fill="#000000" fill-opacity="1"><g transform="translate(430.309456, 104.058783)"><g><path d="M 16.734375 -11.171875 C 16.734375 -7.265625 16.09375 -4.375 14.8125 -2.5 C 13.539062 -0.625 11.578125 0.3125 8.921875 0.3125 C 6.347656 0.3125 4.40625 -0.65625 3.09375 -2.59375 C 1.78125 -4.53125 1.125 -7.390625 1.125 -11.171875 C 1.125 -15.109375 1.757812 -18.007812 3.03125 -19.875 C 4.3125 -21.75 6.273438 -22.6875 8.921875 -22.6875 C 11.492188 -22.6875 13.4375 -21.707031 14.75 -19.75 C 16.070312 -17.789062 16.734375 -14.929688 16.734375 -11.171875 Z M 5.8125 -11.171875 C 5.8125 -8.429688 6.046875 -6.46875 6.515625 -5.28125 C 6.992188 -4.09375 7.796875 -3.5 8.921875 -3.5 C 10.015625 -3.5 10.804688 -4.097656 11.296875 -5.296875 C 11.785156 -6.503906 12.03125 -8.460938 12.03125 -11.171875 C 12.03125 -13.910156 11.78125 -15.875 11.28125 -17.0625 C 10.789062 -18.257812 10.003906 -18.859375 8.921875 -18.859375 C 7.804688 -18.859375 7.007812 -18.257812 6.53125 -17.0625 C 6.050781 -15.875 5.8125 -13.910156 5.8125 -11.171875 Z M 5.8125 -11.171875 "/></g></g></g><g fill="#000000" fill-opacity="1"><g transform="translate(448.159571, 104.058783)"><g/></g></g><g fill="#000000" fill-opacity="1"><g transform="translate(456.285553, 104.058783)"><g/></g></g><g fill="#000000" fill-opacity="1"><g transform="translate(464.411534, 104.058783)"><g/></g></g><g fill="#000000" fill-opacity="1"><g transform="translate(472.537516, 104.058783)"><g/></g></g><g fill="#000000" fill-opacity="1"><g transform="translate(480.663497, 104.058783)"><g/></g></g><g fill="#000000" fill-opacity="1"><g transform="translate(488.789479, 104.058783)"><g/></g></g><g fill="#000000" fill-opacity="1"><g transform="translate(496.91546, 104.058783)"><g/></g></g><g fill="#000000" fill-opacity="1"><g transform="translate(505.026872, 104.058783)"><g><path d="M 12.921875 0 L 8.203125 0 L 8.203125 -12.921875 L 8.25 -15.046875 L 8.328125 -17.359375 C 7.535156 -16.578125 6.988281 -16.066406 6.6875 -15.828125 L 4.125 -13.765625 L 1.84375 -16.609375 L 9.046875 -22.328125 L 12.921875 -22.328125 Z M 12.921875 0 "/></g></g></g><g fill="#000000" fill-opacity="1"><g transform="translate(522.882647, 104.058783)"><g><path d="M 16.734375 -11.171875 C 16.734375 -7.265625 16.09375 -4.375 14.8125 -2.5 C 13.539062 -0.625 11.578125 0.3125 8.921875 0.3125 C 6.347656 0.3125 4.40625 -0.65625 3.09375 -2.59375 C 1.78125 -4.53125 1.125 -7.390625 1.125 -11.171875 C 1.125 -15.109375 1.757812 -18.007812 3.03125 -19.875 C 4.3125 -21.75 6.273438 -22.6875 8.921875 -22.6875 C 11.492188 -22.6875 13.4375 -21.707031 14.75 -19.75 C 16.070312 -17.789062 16.734375 -14.929688 16.734375 -11.171875 Z M 5.8125 -11.171875 C 5.8125 -8.429688 6.046875 -6.46875 6.515625 -5.28125 C 6.992188 -4.09375 7.796875 -3.5 8.921875 -3.5 C 10.015625 -3.5 10.804688 -4.097656 11.296875 -5.296875 C 11.785156 -6.503906 12.03125 -8.460938 12.03125 -11.171875 C 12.03125 -13.910156 11.78125 -15.875 11.28125 -17.0625 C 10.789062 -18.257812 10.003906 -18.859375 8.921875 -18.859375 C 7.804688 -18.859375 7.007812 -18.257812 6.53125 -17.0625 C 6.050781 -15.875 5.8125 -13.910156 5.8125 -11.171875 Z M 5.8125 -11.171875 "/></g></g></g><g fill="#000000" fill-opacity="1"><g transform="translate(540.738422, 104.058783)"><g><path d="M 16.734375 -11.171875 C 16.734375 -7.265625 16.09375 -4.375 14.8125 -2.5 C 13.539062 -0.625 11.578125 0.3125 8.921875 0.3125 C 6.347656 0.3125 4.40625 -0.65625 3.09375 -2.59375 C 1.78125 -4.53125 1.125 -7.390625 1.125 -11.171875 C 1.125 -15.109375 1.757812 -18.007812 3.03125 -19.875 C 4.3125 -21.75 6.273438 -22.6875 8.921875 -22.6875 C 11.492188 -22.6875 13.4375 -21.707031 14.75 -19.75 C 16.070312 -17.789062 16.734375 -14.929688 16.734375 -11.171875 Z M 5.8125 -11.171875 C 5.8125 -8.429688 6.046875 -6.46875 6.515625 -5.28125 C 6.992188 -4.09375 7.796875 -3.5 8.921875 -3.5 C 10.015625 -3.5 10.804688 -4.097656 11.296875 -5.296875 C 11.785156 -6.503906 12.03125 -8.460938 12.03125 -11.171875 C 12.03125 -13.910156 11.78125 -15.875 11.28125 -17.0625 C 10.789062 -18.257812 10.003906 -18.859375 8.921875 -18.859375 C 7.804688 -18.859375 7.007812 -18.257812 6.53125 -17.0625 C 6.050781 -15.875 5.8125 -13.910156 5.8125 -11.171875 Z M 5.8125 -11.171875 "/></g></g></g><g fill="#000000" fill-opacity="1"><g transform="translate(558.579388, 104.058783)"><g/></g></g><g fill="#000000" fill-opacity="1"><g transform="translate(566.70537, 104.058783)"><g/></g></g><g fill="#000000" fill-opacity="1"><g transform="translate(574.831351, 104.058783)"><g/></g></g><g fill="#000000" fill-opacity="1"><g transform="translate(582.957333, 104.058783)"><g/></g></g><g fill="#000000" fill-opacity="1"><g transform="translate(591.083314, 104.058783)"><g/></g></g><g fill="#000000" fill-opacity="1"><g transform="translate(599.209296, 104.058783)"><g/></g></g><g fill="#000000" fill-opacity="1"><g transform="translate(607.328455, 104.058783)"><g><path d="M 12.921875 0 L 8.203125 0 L 8.203125 -12.921875 L 8.25 -15.046875 L 8.328125 -17.359375 C 7.535156 -16.578125 6.988281 -16.066406 6.6875 -15.828125 L 4.125 -13.765625 L 1.84375 -16.609375 L 9.046875 -22.328125 L 12.921875 -22.328125 Z M 12.921875 0 "/></g></g></g><g fill="#000000" fill-opacity="1"><g transform="translate(625.18423, 104.058783)"><g><path d="M 16.734375 -11.171875 C 16.734375 -7.265625 16.09375 -4.375 14.8125 -2.5 C 13.539062 -0.625 11.578125 0.3125 8.921875 0.3125 C 6.347656 0.3125 4.40625 -0.65625 3.09375 -2.59375 C 1.78125 -4.53125 1.125 -7.390625 1.125 -11.171875 C 1.125 -15.109375 1.757812 -18.007812 3.03125 -19.875 C 4.3125 -21.75 6.273438 -22.6875 8.921875 -22.6875 C 11.492188 -22.6875 13.4375 -21.707031 14.75 -19.75 C 16.070312 -17.789062 16.734375 -14.929688 16.734375 -11.171875 Z M 5.8125 -11.171875 C 5.8125 -8.429688 6.046875 -6.46875 6.515625 -5.28125 C 6.992188 -4.09375 7.796875 -3.5 8.921875 -3.5 C 10.015625 -3.5 10.804688 -4.097656 11.296875 -5.296875 C 11.785156 -6.503906 12.03125 -8.460938 12.03125 -11.171875 C 12.03125 -13.910156 11.78125 -15.875 11.28125 -17.0625 C 10.789062 -18.257812 10.003906 -18.859375 8.921875 -18.859375 C 7.804688 -18.859375 7.007812 -18.257812 6.53125 -17.0625 C 6.050781 -15.875 5.8125 -13.910156 5.8125 -11.171875 Z M 5.8125 -11.171875 "/></g></g></g><g fill="#000000" fill-opacity="1"><g transform="translate(643.040005, 104.058783)"><g><path d="M 16.734375 -11.171875 C 16.734375 -7.265625 16.09375 -4.375 14.8125 -2.5 C 13.539062 -0.625 11.578125 0.3125 8.921875 0.3125 C 6.347656 0.3125 4.40625 -0.65625 3.09375 -2.59375 C 1.78125 -4.53125 1.125 -7.390625 1.125 -11.171875 C 1.125 -15.109375 1.757812 -18.007812 3.03125 -19.875 C 4.3125 -21.75 6.273438 -22.6875 8.921875 -22.6875 C 11.492188 -22.6875 13.4375 -21.707031 14.75 -19.75 C 16.070312 -17.789062 16.734375 -14.929688 16.734375 -11.171875 Z M 5.8125 -11.171875 C 5.8125 -8.429688 6.046875 -6.46875 6.515625 -5.28125 C 6.992188 -4.09375 7.796875 -3.5 8.921875 -3.5 C 10.015625 -3.5 10.804688 -4.097656 11.296875 -5.296875 C 11.785156 -6.503906 12.03125 -8.460938 12.03125 -11.171875 C 12.03125 -13.910156 11.78125 -15.875 11.28125 -17.0625 C 10.789062 -18.257812 10.003906 -18.859375 8.921875 -18.859375 C 7.804688 -18.859375 7.007812 -18.257812 6.53125 -17.0625 C 6.050781 -15.875 5.8125 -13.910156 5.8125 -11.171875 Z M 5.8125 -11.171875 "/></g></g></g></svg>